<?xml version="1.0" encoding="utf-8"?>
<!-- Generator: Adobe Illustrator 27.8.1, SVG Export Plug-In . SVG Version: 6.00 Build 0)  -->
<svg version="1.1" id="Layer_1" xmlns="http://www.w3.org/2000/svg" xmlns:xlink="http://www.w3.org/1999/xlink" x="0px" y="0px"
	 viewBox="0 0 1366 768" style="enable-background:new 0 0 1366 768;" xml:space="preserve">
<g>
	<path d="M208.64,409.65c37.2-10.1,61.88-32.06,66.02-70.7c4.12-38.44-17.65-63.38-51.4-83.93c6.5-1.5,9.71-2.87,12.92-2.89
		c35.7-0.27,71.42-1,107.11-0.24c24.69,0.52,48.48,4.99,67.32,23.68c33.39,33.11,34.81,87.55,2.72,122.11
		c-1.6,1.72-3.19,3.45-4.83,5.14c-10.11,10.37-10.5,10.84,1.05,20.08c44.12,35.3,36.21,120.99-17.39,142.53
		c-11.15,4.48-23.4,8.39-35.23,8.65c-45.08,1.02-90.2,0.46-135.3,0.4c-2.66,0-5.33-0.8-7.99-1.23c-0.32-0.99-0.64-1.98-0.96-2.97
		c4.73-1.87,9.42-3.85,14.21-5.58c32.81-11.81,52.62-41.28,51.21-76.26c-1.39-34.37-22.91-61.16-56.61-70.58
		c-3.9-1.09-7.67-2.61-11.5-3.92C209.53,412.5,209.09,411.08,208.64,409.65z"/>
	<path d="M969.84,482.8c0-3.29-0.29-6.6,0.06-9.85c0.68-6.39,3.95-7.6,9.78-5.05c31.35,13.72,48.19,10.56,71.35-14.15
		c11.86-12.65,22.24-26.71,34.29-39.16c29.7-30.67,66.1-40.77,107.99-34.21c26.19,4.1,49.84,13.14,69.59,31.14
		c19.45,17.73,28.3,39.17,23.21,65.78c-1.77,9.24-5.37,11.29-13.23,6.14c-23.11-15.14-49.03-11.79-68.86,14.8
		c-7.3,9.79-14.57,19.6-21.7,29.51c-26.85,37.32-73.18,53.98-118.11,44.37c-26.49-5.66-50.06-15.97-69.51-34.68
		C979.32,522.68,969.28,505,969.84,482.8z"/>
	<path d="M818.4,571.66c0.13-1.25-0.05-2.7,0.44-3.88c9.99-24.39,5.53-37.22-18.5-48.47c-14.42-6.75-29.69-11.65-44.44-17.73
		c-45.6-18.79-67.84-59.55-55.69-103.61c9.52-34.51,33.12-54.67,67.88-61.82c5.11-1.05,10.61-0.15,16.28-0.15
		c-6.85,36.37-2.75,44.15,30.37,60.51c17.63,8.71,36.34,15.8,52.64,26.54c40.99,27.02,52.08,74.71,28.75,115.98
		C880.19,567.21,846.27,581.55,818.4,571.66z"/>
	<path d="M631.13,458.25c0,34.32-0.31,68.65,0.2,102.97c0.15,9.85-3.23,13.47-12.89,13.38c-31.03-0.29-62.07-0.28-93.1-0.05
		c-9.54,0.07-13.07-3.47-13.02-13.37c0.34-69.12,0.34-138.24,0-207.36c-0.05-10.82,4.47-13.8,14.38-13.69
		c30.09,0.33,60.19,0.44,90.27-0.06c11.39-0.19,14.39,4.4,14.21,15.21c-0.57,34.32-0.21,68.65-0.21,102.97
		C631.02,458.25,631.08,458.25,631.13,458.25z"/>
	<path d="M143.07,569.36c-35.79,0.05-64.74-31.1-64.58-69.49c0.16-37.16,29.89-68.89,64.34-68.68c34.65,0.21,64.29,31.7,64.52,68.54
		C207.59,538.33,178.99,569.31,143.07,569.36z"/>
	<path d="M208.21,324.88c0.01,39.05-28.03,68.78-64.84,68.75c-35.55-0.04-64.51-31.68-63.05-70.81
		c1.39-37.3,28.93-67.49,64.42-66.51C180.7,257.3,208.2,286.22,208.21,324.88z"/>
	<circle cx="862.24" cy="368.19" r="34.57"/>
	<circle cx="571.72" cy="250.37" r="59.26"/>
	<circle cx="735.32" cy="542.32" r="34.57"/>
</g>
</svg>
